<svg xmlns="http://www.w3.org/2000/svg" id="export-1" viewBox="11.5 -70 77 170">
  <defs>
    <style>
      .cls-1{fill:#f06}.cls-2{fill:none;stroke:#f06;stroke-linecap:round;stroke-miterlimit:10;stroke-width:4px}
    </style>
  </defs>
  <path d="M75 6.7v80H18.3v-80h56.9M81.8 0H11.5v93.3h70.3V0Z" class="cls-1"/>
  <path d="M81.8 6.7h-5.4V88H18.2v12h70.3V6.7h-6.7ZM76.4 88" class="cls-1"/>
  <path d="M48.3 16.2a14.9 14.9 0 0 0-16.4 17.3" class="cls-2"/>
  <path d="m48.6 10.3 7.6 9.2-11.8 2.1 4.2-11.3z" class="cls-1"/>
  <path d="M45 45.7a14.9 14.9 0 0 0 16.4-17.3" class="cls-2"/>
  <path d="m44.8 51.6-7.7-9.2 11.8-2.1-4.1 11.3zM28.5 77.2c-1 0-1.4-.5-1.4-1.6V62.3l-2 1.2c-.9.6-1.5.5-2-.3-.6-.8-.4-1.5.5-2l3.2-2 1-.5a4 4 0 0 1 1 0c.7 0 1.1.4 1.1 1.5v15.5c0 1-.5 1.5-1.4 1.5Zm8.1.3a2 2 0 0 1-1.4-.6c-.4-.4-.6-.8-.6-1.4s.2-1 .6-1.4c.4-.4.8-.6 1.4-.6s1 .2 1.4.6c.4.4.6.9.6 1.4s-.2 1-.6 1.4a2 2 0 0 1-1.4.6Zm5.8-.3c-1.1 0-1.6-.3-1.6-.9 0-1.2.3-2.5 1-3.7.7-1.2 1.8-2.5 3.3-4l1.6-1.6 1.2-1.6c.4-.5.5-1 .5-1.5 0-1-.2-1.6-.6-2-.4-.5-1-.7-1.8-.7-1.1 0-1.8.6-2.1 1.6a3 3 0 0 1-.6 1.1c-.2.3-.5.4-1 .4s-.8-.1-1-.4c-.3-.3-.4-.7-.3-1.2a5 5 0 0 1 1.8-3.1c.8-.7 1.9-1.1 3.2-1.1 1 0 2 .2 2.7.6.8.5 1.5 1 2 1.9s.6 1.8.6 3a5 5 0 0 1-.6 2.3 51 51 0 0 1-3.6 4.2L45 72.7c-.6.8-1 1.4-1 2h5.5c1 0 1.5.4 1.5 1.2s-.5 1.3-1.5 1.3h-7Zm13.1.3A2 2 0 0 1 54 77c-.4-.4-.6-.8-.6-1.4s.2-1 .6-1.4c.4-.4.9-.6 1.5-.6s1 .2 1.4.6c.4.4.6.9.6 1.4s-.2 1-.6 1.4a2 2 0 0 1-1.4.6Zm9.2 0A5 5 0 0 1 60 75c-.3-.5-.4-.9-.2-1.2.1-.4.4-.6.8-.8h1.1l1 .8c.2.3.4.5.7.6l1.1.3c1 0 1.7-.2 2.2-.7.5-.4.8-1.2.8-2.2 0-1-.3-1.7-.8-2.3s-1.3-.8-2.3-.8c-.9 0-1.3-.4-1.3-1.3s.4-1.3 1.3-1.3 1.5-.3 2-.8a3 3 0 0 0 .6-2c0-.8-.2-1.4-.7-1.8-.6-.3-1.1-.5-1.8-.5-.3 0-.6 0-1 .2l-.6.7-1 .7c-.3.2-.6.2-1 0-.5-.2-.7-.4-.9-.8 0-.4 0-.8.3-1.2.5-.7 1.2-1.3 2-1.7.6-.4 1.4-.6 2.3-.6 1 0 2 .2 2.8.6.8.4 1.5 1 2 1.7s.6 1.7.6 2.7a4.4 4.4 0 0 1-2.6 4 4.9 4.9 0 0 1 3 4.6c0 1.7-.5 3-1.5 4s-2.5 1.5-4.3 1.5Z" class="cls-1"/>
</svg>
