<svg xmlns="http://www.w3.org/2000/svg" width="56" height="56" fill="none">
  <g style="display:inline">
    <rect width="56" height="56" x="0" fill="url(#a)" rx="8" style="fill:url(#a)"/>
    <g filter="url(#b)"/>
    <rect width="54" height="54" x="1" y="1" stroke="#f29" stroke-opacity=".33" stroke-width="2.1" rx="6.95"/>
  </g>
  <defs>
    <linearGradient id="a" x1="28" x2="28" y1="0" y2="56" gradientUnits="userSpaceOnUse">
      <stop offset="0" stop-color="#680034" style="stop-color:#680034;stop-opacity:1"/>
      <stop offset="1" stop-color="#340017" style="stop-color:#340017;stop-opacity:1"/>
    </linearGradient>
    <filter id="b" width="36" height="36" x="2.01" y="2" color-interpolation-filters="sRGB" filterUnits="userSpaceOnUse">
      <feFlood flood-opacity="0" result="BackgroundImageFix"/>
      <feColorMatrix in="SourceAlpha" result="hardAlpha" values="0 0 0 0 0 0 0 0 0 0 0 0 0 0 0 0 0 0 127 0"/>
      <feOffset/>
      <feGaussianBlur stdDeviation="2"/>
      <feComposite in2="hardAlpha" operator="out"/>
      <feColorMatrix values="0 0 0 0 0 0 0 0 0 0 0 0 0 0 0 0 0 0 0.25 0"/>
      <feBlend in2="BackgroundImageFix" result="effect1_dropShadow_2_2373"/>
      <feBlend in="SourceGraphic" in2="effect1_dropShadow_2_2373" result="shape"/>
    </filter>
  </defs>
  <g stroke="none" aria-label="pnku.de" style="fill:#f06;shape-rendering:crispEdges">
    <path d="M5 13.08v15.89h2V23h1.99v-1.99h-2v-3.97h2v-1.99h-2v-1.98Zm3.99 0v1.98h3.98v-1.98Zm3.98 1.98v7.95h2v-7.95zm-3.98 7.95v1.98h3.98v-1.98Zm8.03-9.93v11.91h2v-7.94H21v-1.99h-1.99v-1.98Zm3.98 0v1.98h3.98v-1.98Zm3.98 1.98V25h2v-9.93zm4.06-5.96V25h1.99v-3.98H35v-3.97h-2v1.98h-1.98V9.1ZM37 13.08v1.98h1.99v-1.98Zm-2 1.98v1.99h2v-1.99zm0 5.96v1.99h2v-1.99zm2 1.99v1.98h1.99v-1.98Zm4.05-9.93V23h2v-9.93Zm2 9.93v1.98h3.97v-1.98ZM49 13.08v7.94h-1.99v1.99h2v1.98H51V13.08Z" aria-label="pnku"/>
    <path d="M32.96 35.4v2.36h1.18V35.4z" transform="matrix(1.695 0 0 1.694 -30.85 -20.98)"/>
    <path d="M40.02 28.3v3.55h-1.19v1.18h1.19v2.37h-1.19v1.18h1.19v1.18h1.18v-9.45zm-1.19 8.28h-2.36v1.18h2.36zm-2.36 0v-4.73H35.3v4.73zm2.36-4.73v-1.18h-2.36v1.18z" transform="matrix(1.695 0 0 1.694 -30.85 -20.98)"/>
    <path d="M15 27v12h-2v2h2v2h2v-2h1.98v-2H17V27Zm-3.98 10v2H13v-2zm7.96 0v2h2v-2z" style="fill:#0f9" aria-label="arrow"/>
    <path d="M43 31v2h6.01v-2zm-2 2v8h2v-4h8.02v-4h-2v2H43v-2Zm2 8v2h6.01v-2zm6.01-2v2h2v-2z" aria-label="e"/>
  </g>
</svg>
