<svg xmlns="http://www.w3.org/2000/svg" width="56" height="56" fill="none">
  <rect width="56" height="56" fill="url(#a)" rx="8"/>
  <g filter="url(#b)"/>
  <rect width="54" height="54" x="1" y="1" stroke="#f29" stroke-opacity=".3" stroke-width="2.1" rx="7"/>
  <defs>
    <linearGradient id="a" x1="28" x2="28" y1="0" y2="56" gradientUnits="userSpaceOnUse">
      <stop offset="0" stop-color="#680034"/>
      <stop offset="1" stop-color="#340017"/>
    </linearGradient>
    <filter id="b" width="36" height="36" x="2" y="2" filterUnits="userSpaceOnUse">
      <feFlood flood-opacity="0" result="BackgroundImageFix"/>
      <feColorMatrix in="SourceAlpha" result="hardAlpha" values="0 0 0 0 0 0 0 0 0 0 0 0 0 0 0 0 0 0 127 0"/>
      <feOffset/>
      <feGaussianBlur stdDeviation="2"/>
      <feComposite in2="hardAlpha" operator="out"/>
      <feColorMatrix values="0 0 0 0 0 0 0 0 0 0 0 0 0 0 0 0 0 0 0.25 0"/>
      <feBlend in2="BackgroundImageFix" result="effect1_dropShadow_2_2373"/>
      <feBlend in="SourceGraphic" in2="effect1_dropShadow_2_2373" result="shape"/>
    </filter>
  </defs>
  <g fill="#f06" aria-label="pnku.de" shape-rendering="crispEdges">
    <path d="M5 13v16h2v-6h2v-2H7v-4h2v-2H7v-2Zm4 0v2h4v-2Zm4 2v8h2v-8zm-4 8v2h4v-2Zm8-10v12h2v-8h2v-2h-2v-2Zm4 0v2h4v-2Zm4 2v10h2V15zm4-6v16h2v-4h4v-4h-2v2h-2V9Zm8 4v2h2v-2Zm-2 2v2h2v-2zm0 6v2h2v-2zm2 2v2h2v-2Zm4-10v10h2V13Zm2 10v2h4v-2Zm6-10v8h-2v2h2v2h2V13Z" aria-label="pnku"/>
    <path d="M25 39v4h2v-4zm12-12v6h-2v2h2v4h-2v2h2v2h2V27zm-2 14h-4v2h4zm-4 0v-8h-2v8zm4-8v-2h-4v2z"/>
    <path fill="#0f9" d="M15 27v12h-2v2h2v2h2v-2h2v-2h-2V27Zm-4 10v2h2v-2zm8 0v2h2v-2z" aria-label="arrow"/>
    <path d="M43 31v2h6v-2zm-2 2v8h2v-4h8v-4h-2v2h-6v-2Zm2 8v2h6v-2zm6-2v2h2v-2z" aria-label="e"/>
  </g>
</svg>
