<svg xmlns="http://www.w3.org/2000/svg" viewBox="0 0 100.5 100">
  <path d="M.2 79.3v-12c0-2 .7-3.5 2.5-4.4 2-.8 3.7-.4 5.2 1 1.8 1.5 3 3.8 5.5 4.4 4.4 1.2 8.1-.8 10.3-5.6 2.6-5.5 1.5-13-2.5-16.6-3.8-3.4-8.7-3-11.8 1-2.2 2.8-4.4 3.5-7 2.3-1-.5-2-1.3-2-2.3-.3-5.2-.9-10.5.3-15.5 1-4.2 4.8-6.6 9.2-6.6H30c2.5 0 4.5-.8 5.5-3.1s.4-4.5-1.3-6.4c-2.1-2.3-3.6-4.8-2.7-8 1.3-4 4.5-6 8.4-7 4.4-1.1 8.6-.5 12.5 2.2C57 6 57.5 11 53.8 15c-2.5 2.8-2.9 5.5-1 8 1 1.5 2.6 2 4.5 2 3.8.2 7.8-.7 11.6.6 4 1.4 6.2 5 6.2 9.1v8.1c0 2.2.7 3.9 2.6 5 2.1 1.1 4.3.9 6.1-.6 3-2.5 6-4.6 9.9-2.7 4.5 2.2 6 6.4 6.3 11 .4 6.1-2.8 11.5-7.7 13-2.8.8-5.2-.3-7.3-2.3-2-1.9-4.2-2.9-6.9-1.7-2.6 1.2-3 3.4-3 6 0 7.3 0 14.6-.3 21.9-.2 4-4.4 7.5-8.5 7.5H55.5c-2.2.1-4-.3-5-2.6-1-2.3-.1-4.3 1.6-5.8 3.1-2.6 5.4-5.6 3.7-9.7-1.9-4.4-5.8-6.2-10.3-6.7-3.7-.4-7.2.3-10.3 2.6-5 3.7-5.2 9.2-.4 13.1 3 2.5 3.7 5.7 1.5 7.9-.9.8-2 1.2-3.2 1.2H9.2c-4.8 0-8.8-4-9-8.8V79.3Z" style="fill:#f06"/>
</svg>
