<svg xmlns="http://www.w3.org/2000/svg" id="export-1" viewBox="0 0 100 68">
  <defs>
    <style>
      .cls-3{fill:#f06}
    </style>
  </defs>
  <rect width="56.2" height="39.9" class="cls-3" rx="10" ry="10"/>
  <path d="M70 48.4a8 8 0 0 1-4.8-1.2 4.6 4.6 0 0 1-1.8-4c0-1.2.4-2.3 1.1-3.2a7 7 0 0 1 3-2 10 10 0 0 1 5.5-.7l1.5.6v-1.5c0-1.2-.3-2-.8-2.3a4 4 0 0 0-2.1-.5c-.7 0-1.4 0-2.2.3-.7.1-1.5.4-2.2.7a3 3 0 0 1-1.6.3c-.4-.1-.8-.4-1.1-1s-.4-1-.2-1.4c.1-.5.6-.9 1.2-1.2a14.6 14.6 0 0 1 6-1.3c2.4 0 4 .4 5.2 1.4s1.7 2.5 1.7 5v8.1a1.6 1.6 0 0 0 .3 1l.7.5h.7c.2 0 .3.2.3.4 0 .5-.1.8-.4 1.2-.2.3-.6.5-1.1.6l-1.7.2c-.7 0-1.3-.1-1.7-.4-.4-.2-.7-.7-.9-1.3-.6.5-1.3 1-2.1 1.2s-1.7.5-2.5.5Zm-2.8-20.3c-.6 0-1-.2-1.5-.7-.5-.4-.7-1-.7-1.6s.3-1 .7-1.5c.4-.5 1-.7 1.5-.7s1.2.2 1.6.7c.5.4.7 1 .7 1.5s-.3 1.2-.7 1.6a2 2 0 0 1-1.6.7ZM70 44.8c1.3 0 2.5-.3 3.4-.8s1.3-1.2 1.2-2.1c0-.6-.3-1-.9-1.2-.5-.2-1.2-.3-2.1-.3a5 5 0 0 0-3 1c-.8.5-1.1 1.1-1.1 1.9 0 1 .9 1.6 2.5 1.5Zm4.4-16.7c-.6 0-1-.2-1.5-.7-.5-.4-.7-1-.7-1.6s.2-1 .7-1.5 1-.7 1.6-.7 1 .2 1.5.7.7 1 .7 1.5-.3 1.2-.7 1.6a2 2 0 0 1-1.5.7Z" class="cls-3"/>
  <path d="M16.1 34.8a3 3 0 0 1-1.9 0c-.4-.3-.8-.7-1-1.3a2 2 0 0 1 1.5-2.5 31.1 31.1 0 0 0 10.7-5.2 26 26 0 0 1-3.4-5.2c-1-2-1.8-4-2.4-6.2H15c-.4 0-.9-.2-1.2-.5-.3-.4-.5-.8-.5-1.2s.2-1 .5-1.3c.3-.3.8-.5 1.2-.5h11V7.1c0-.6.2-1.1.6-1.5a2.2 2.2 0 0 1 3 0c.4.4.6.9.6 1.5v3.8h11c.4 0 .8.2 1.1.5s.5.8.5 1.3-.1.8-.5 1.2-.7.5-1.2.5h-4.4a31.9 31.9 0 0 1-5.8 11.3c1.4 1.2 3 2.2 4.8 3s3.7 1.7 6 2.3c.6.1 1 .5 1.3 1 .2.5.3 1 0 1.5a2 2 0 0 1-1 1.2c-.4.3-1 .3-1.8 0a32 32 0 0 1-12-6.2 28.2 28.2 0 0 1-5.3 3.6c-2 1-4.2 1.9-6.7 2.6Zm12-11.8a27.2 27.2 0 0 0 4.2-8.6h-8.5a31.4 31.4 0 0 0 4.3 8.6Z" style="fill:#fff"/>
  <path d="M15.6 45.6c0 .3 1.3.5 3 .5" style="fill:none"/>
  <path d="M25 38.6H5V52l20-13.4zM90 21a5 5 0 0 1 5 5v20a5 5 0 0 1-2.5 4.3L90 51.8v6.8l-10.2-6.8-1.2-.8H53.8a5 5 0 0 1-5-5V26a5 5 0 0 1 5-5H90m0-5H53.8a10 10 0 0 0-10 10v20a10 10 0 0 0 10 10H77l18 12V54.6c3-1.7 5-5 5-8.7V26.1a10 10 0 0 0-10-10Z" class="cls-3"/>
</svg>
